<svg width="2013" height="1213" viewBox="0 0 2013 1213" fill="none" xmlns="http://www.w3.org/2000/svg">
<path d="M122.195 243.359C203.801 216.29 576.085 127.188 576.085 127.188C746.209 82.0933 841.661 56.903 1018.06 20.0403C1072.08 10.8134 1102.36 7.87399 1156.25 6.50576C1185.67 6.38424 1201.24 8.16649 1228.33 12.7091C1399.87 39.0693 1488.75 61.6988 1650.65 98.4275C1714.04 110.777 1747.07 120.467 1797.18 147.49C1853.29 185.812 1877.66 214.225 1908.57 277.196C1939.58 344.22 1958 376.255 1983.62 472.318C2001.35 530.403 2010.17 561.364 2005.06 615.558C1986.24 679.964 1973.77 714.86 1946.69 774.024C1930.96 809.147 1920.95 820.517 1887.72 818.011C1877.46 816.32 1860.64 811.802 1840.53 797.704C1820.41 783.605 1709.02 723.27 1709.02 723.27C1651.11 689.998 1618.94 670.26 1565.47 631.348C1518.25 589.505 1502.79 561.984 1499.35 510.102C1499.15 459.576 1524.97 398.391 1536.88 387.163C1602.06 325.682 1679.66 271.456 1706.04 230.953C1722.59 201.064 1695.78 168.92 1656.6 175.123L1626.09 179.071L1597.5 184.146C1564.36 190.428 1545.45 195.058 1511.72 208.959C1494.04 216.831 1484.15 222.444 1466.59 236.028L1343.29 349.38C1295.71 380.218 1274.16 379.715 1231.9 357.839C1197.42 325.613 1191.09 305.602 1202.72 266.481C1220.8 236.817 1233.9 221.797 1253.94 193.169C1268.93 151.212 1263.01 135.647 1238.45 123.805C1213.9 111.962 1089.4 119.293 1004.82 144.106C920.237 168.92 907.918 179.268 873.318 258.586C851.737 338.665 864.841 378.14 902.505 424.947C1036.71 531.436 1129.33 580.777 1275.98 679.847C1364.6 743.572 1430.97 771.227 1485.65 847.9C1509.42 887.045 1517.69 908.291 1519.01 944.333C1520.06 1001.29 1507.76 1046.49 1494.59 1110.13C1481.28 1174.42 1443.15 1197.64 1428.93 1202.62C1414.71 1207.6 1404.77 1206.87 1392.59 1205.44C1380.41 1204 1172.34 1151.3 1172.34 1151.3C1172.34 1151.3 321.145 949.409 250.261 925.159C179.376 900.91 133.239 880.093 79.9031 801.657C65.8725 777.795 60.1846 764.46 53.6943 740.752C44.3193 706.778 41.6453 688.143 41.1855 655.597C39.9929 617.25 52.8237 583.564 70.3726 560.292C98.4081 523.114 116.101 472.312 115.046 464.987C113.99 457.661 107.414 442.323 97.7728 435.098C88.1317 427.873 30.4624 391.675 10.8071 343.74C-8.84823 295.806 40.5886 270.428 122.195 243.359Z" stroke="white" stroke-width="13" stroke-linejoin="round"/>
</svg>
